<?xml version="1.0" encoding="UTF-8" standalone="no"?>
<!DOCTYPE svg PUBLIC "-//W3C//DTD SVG 1.1//EN"
 "http://www.w3.org/Graphics/SVG/1.1/DTD/svg11.dtd">
<!-- Generated by graphviz version 2.42.4 (0)
 -->
<!-- Title: AtlasRelay Pages: 1 -->
<svg width="1382pt" height="469pt"
 viewBox="0.00 0.00 1381.80 468.80" xmlns="http://www.w3.org/2000/svg" xmlns:xlink="http://www.w3.org/1999/xlink">
<g id="graph0" class="graph" transform="scale(1 1) rotate(0) translate(14.4 454.4)">
<title>AtlasRelay</title>
<polygon fill="white" stroke="transparent" points="-14.4,14.4 -14.4,-454.4 1367.4,-454.4 1367.4,14.4 -14.4,14.4"/>
<!-- cord -->
<g id="node1" class="node">
<title>cord</title>
<path fill="none" stroke="black" d="M152,-237C152,-237 12,-237 12,-237 6,-237 0,-231 0,-225 0,-225 0,-213 0,-213 0,-207 6,-201 12,-201 12,-201 152,-201 152,-201 158,-201 164,-207 164,-213 164,-213 164,-225 164,-225 164,-231 158,-237 152,-237"/>
<text text-anchor="middle" x="82" y="-222" font-family="Arial" font-size="10.00">Country&#45;specific short mains cord</text>
<text text-anchor="middle" x="82" y="-211" font-family="Arial" font-size="10.00">Low wall mass</text>
</g>
<!-- protect -->
<g id="node2" class="node">
<title>protect</title>
<path fill="none" stroke="black" d="M335,-237C335,-237 223,-237 223,-237 217,-237 211,-231 211,-225 211,-225 211,-213 211,-213 211,-207 217,-201 223,-201 223,-201 335,-201 335,-201 341,-201 347,-207 347,-213 347,-213 347,-225 347,-225 347,-231 341,-237 335,-237"/>
<text text-anchor="middle" x="279" y="-222" font-family="Arial" font-size="10.00">Input Protection</text>
<text text-anchor="middle" x="279" y="-211" font-family="Arial" font-size="10.00">Fuse / Surge / EMI / Inrush</text>
</g>
<!-- cord&#45;&gt;protect -->
<g id="edge1" class="edge">
<title>cord&#45;&gt;protect</title>
<path fill="none" stroke="black" d="M164,-219C176.18,-219 188.72,-219 200.82,-219"/>
<polygon fill="black" stroke="black" points="200.86,-222.5 210.86,-219 200.86,-215.5 200.86,-222.5"/>
</g>
<!-- gan -->
<g id="node3" class="node">
<title>gan</title>
<path fill="none" stroke="black" d="M510,-271C510,-271 406,-271 406,-271 400,-271 394,-265 394,-259 394,-259 394,-247 394,-247 394,-241 400,-235 406,-235 406,-235 510,-235 510,-235 516,-235 522,-241 522,-247 522,-247 522,-259 522,-259 522,-265 516,-271 510,-271"/>
<text text-anchor="middle" x="458" y="-256" font-family="Arial" font-size="10.00">Isolated GaN AC&#45;DC</text>
<text text-anchor="middle" x="458" y="-245" font-family="Arial" font-size="10.00">100–240V AC → DC Bus</text>
</g>
<!-- protect&#45;&gt;gan -->
<g id="edge2" class="edge">
<title>protect&#45;&gt;gan</title>
<path fill="none" stroke="black" d="M347.17,-231.9C359.16,-234.21 371.72,-236.62 383.87,-238.95"/>
<polygon fill="black" stroke="black" points="383.48,-242.44 393.96,-240.89 384.8,-235.57 383.48,-242.44"/>
</g>
<!-- acsense -->
<g id="node8" class="node">
<title>acsense</title>
<path fill="none" stroke="black" d="M678.5,-204C678.5,-204 590.5,-204 590.5,-204 584.5,-204 578.5,-198 578.5,-192 578.5,-192 578.5,-180 578.5,-180 578.5,-174 584.5,-168 590.5,-168 590.5,-168 678.5,-168 678.5,-168 684.5,-168 690.5,-174 690.5,-180 690.5,-180 690.5,-192 690.5,-192 690.5,-198 684.5,-204 678.5,-204"/>
<text text-anchor="middle" x="634.5" y="-183.5" font-family="Arial" font-size="10.00">AC / Brownout Sense</text>
</g>
<!-- protect&#45;&gt;acsense -->
<g id="edge7" class="edge">
<title>protect&#45;&gt;acsense</title>
<path fill="none" stroke="black" d="M347.32,-212.72C410.8,-206.79 505.31,-197.97 568.14,-192.1"/>
<polygon fill="black" stroke="black" points="568.69,-195.57 578.32,-191.15 568.04,-188.6 568.69,-195.57"/>
</g>
<!-- dcdc -->
<g id="node4" class="node">
<title>dcdc</title>
<path fill="none" stroke="black" d="M688,-304C688,-304 581,-304 581,-304 575,-304 569,-298 569,-292 569,-292 569,-280 569,-280 569,-274 575,-268 581,-268 581,-268 688,-268 688,-268 694,-268 700,-274 700,-280 700,-280 700,-292 700,-292 700,-298 694,-304 688,-304"/>
<text text-anchor="middle" x="634.5" y="-289" font-family="Arial" font-size="10.00">Multi&#45;port DC&#45;DC</text>
<text text-anchor="middle" x="634.5" y="-278" font-family="Arial" font-size="10.00">Dynamic Power Allocation</text>
</g>
<!-- gan&#45;&gt;dcdc -->
<g id="edge3" class="edge">
<title>gan&#45;&gt;dcdc</title>
<path fill="none" stroke="black" d="M522.49,-265.01C534.29,-267.24 546.72,-269.59 558.82,-271.88"/>
<polygon fill="black" stroke="black" points="558.41,-275.36 568.88,-273.78 559.71,-268.48 558.41,-275.36"/>
</g>
<!-- c1 -->
<g id="node5" class="node">
<title>c1</title>
<path fill="none" stroke="black" d="M819,-440C819,-440 759,-440 759,-440 753,-440 747,-434 747,-428 747,-428 747,-416 747,-416 747,-410 753,-404 759,-404 759,-404 819,-404 819,-404 825,-404 831,-410 831,-416 831,-416 831,-428 831,-428 831,-434 825,-440 819,-440"/>
<text text-anchor="middle" x="789" y="-425" font-family="Arial" font-size="10.00">USB&#45;C 1</text>
<text text-anchor="middle" x="789" y="-414" font-family="Arial" font-size="10.00">PD up to 100W</text>
</g>
<!-- dcdc&#45;&gt;c1 -->
<g id="edge4" class="edge">
<title>dcdc&#45;&gt;c1</title>
<path fill="none" stroke="black" d="M654.98,-304.35C677.03,-325 714.16,-359.39 747,-388 750.47,-391.02 754.13,-394.15 757.79,-397.23"/>
<polygon fill="black" stroke="black" points="755.79,-400.12 765.71,-403.84 760.28,-394.75 755.79,-400.12"/>
</g>
<!-- c2 -->
<g id="node6" class="node">
<title>c2</title>
<path fill="none" stroke="black" d="M805,-372C805,-372 773,-372 773,-372 767,-372 761,-366 761,-360 761,-360 761,-348 761,-348 761,-342 767,-336 773,-336 773,-336 805,-336 805,-336 811,-336 817,-342 817,-348 817,-348 817,-360 817,-360 817,-366 811,-372 805,-372"/>
<text text-anchor="middle" x="789" y="-357" font-family="Arial" font-size="10.00">USB&#45;C 2</text>
<text text-anchor="middle" x="789" y="-346" font-family="Arial" font-size="10.00">PD</text>
</g>
<!-- dcdc&#45;&gt;c2 -->
<g id="edge5" class="edge">
<title>dcdc&#45;&gt;c2</title>
<path fill="none" stroke="black" d="M675.97,-304.04C699.44,-314.51 728.76,-327.59 751.52,-337.73"/>
<polygon fill="black" stroke="black" points="750.28,-341.01 760.83,-341.89 753.13,-334.62 750.28,-341.01"/>
</g>
<!-- c3 -->
<g id="node7" class="node">
<title>c3</title>
<path fill="none" stroke="black" d="M805,-304C805,-304 773,-304 773,-304 767,-304 761,-298 761,-292 761,-292 761,-280 761,-280 761,-274 767,-268 773,-268 773,-268 805,-268 805,-268 811,-268 817,-274 817,-280 817,-280 817,-292 817,-292 817,-298 811,-304 805,-304"/>
<text text-anchor="middle" x="789" y="-289" font-family="Arial" font-size="10.00">USB&#45;C 3</text>
<text text-anchor="middle" x="789" y="-278" font-family="Arial" font-size="10.00">PD</text>
</g>
<!-- dcdc&#45;&gt;c3 -->
<g id="edge6" class="edge">
<title>dcdc&#45;&gt;c3</title>
<path fill="none" stroke="black" d="M700.17,-286C717.45,-286 735.55,-286 750.79,-286"/>
<polygon fill="black" stroke="black" points="750.84,-289.5 760.84,-286 750.84,-282.5 750.84,-289.5"/>
</g>
<!-- meter -->
<g id="node9" class="node">
<title>meter</title>
<path fill="none" stroke="black" d="M997.5,-238C997.5,-238 923.5,-238 923.5,-238 917.5,-238 911.5,-232 911.5,-226 911.5,-226 911.5,-214 911.5,-214 911.5,-208 917.5,-202 923.5,-202 923.5,-202 997.5,-202 997.5,-202 1003.5,-202 1009.5,-208 1009.5,-214 1009.5,-214 1009.5,-226 1009.5,-226 1009.5,-232 1003.5,-238 997.5,-238"/>
<text text-anchor="middle" x="960.5" y="-217.5" font-family="Arial" font-size="10.00">Per&#45;port V/I/W/Wh</text>
</g>
<!-- dcdc&#45;&gt;meter -->
<g id="edge9" class="edge">
<title>dcdc&#45;&gt;meter</title>
<path fill="none" stroke="black" d="M688.95,-267.96C707.21,-262.27 727.85,-256.34 747,-252 798.71,-240.29 858.49,-231.72 901.45,-226.41"/>
<polygon fill="black" stroke="black" points="901.94,-229.88 911.44,-225.2 901.09,-222.93 901.94,-229.88"/>
</g>
<!-- pd -->
<g id="node10" class="node">
<title>pd</title>
<path fill="none" stroke="black" d="M1031,-339C1031,-339 890,-339 890,-339 884,-339 878,-333 878,-327 878,-327 878,-315 878,-315 878,-309 884,-303 890,-303 890,-303 1031,-303 1031,-303 1037,-303 1043,-309 1043,-315 1043,-315 1043,-327 1043,-327 1043,-333 1037,-339 1031,-339"/>
<text text-anchor="middle" x="960.5" y="-318.5" font-family="Arial" font-size="10.00">PD Contract &amp; Reconnect Events</text>
</g>
<!-- c1&#45;&gt;pd -->
<g id="edge11" class="edge">
<title>c1&#45;&gt;pd</title>
<path fill="none" stroke="black" d="M820.3,-403.94C848.3,-387.26 890.03,-362.39 920.5,-344.24"/>
<polygon fill="black" stroke="black" points="922.37,-347.2 929.17,-339.07 918.79,-341.18 922.37,-347.2"/>
</g>
<!-- c2&#45;&gt;pd -->
<g id="edge12" class="edge">
<title>c2&#45;&gt;pd</title>
<path fill="none" stroke="black" d="M817.23,-348.7C831.27,-345.96 849.3,-342.45 867.78,-338.86"/>
<polygon fill="black" stroke="black" points="868.61,-342.26 877.76,-336.91 867.27,-335.39 868.61,-342.26"/>
</g>
<!-- c3&#45;&gt;pd -->
<g id="edge13" class="edge">
<title>c3&#45;&gt;pd</title>
<path fill="none" stroke="black" d="M817.23,-291.62C831.27,-294.52 849.3,-298.25 867.78,-302.06"/>
<polygon fill="black" stroke="black" points="867.26,-305.53 877.76,-304.12 868.67,-298.67 867.26,-305.53"/>
</g>
<!-- mcu -->
<g id="node13" class="node">
<title>mcu</title>
<path fill="none" stroke="black" d="M1176,-171C1176,-171 1102,-171 1102,-171 1096,-171 1090,-165 1090,-159 1090,-159 1090,-147 1090,-147 1090,-141 1096,-135 1102,-135 1102,-135 1176,-135 1176,-135 1182,-135 1188,-141 1188,-147 1188,-147 1188,-159 1188,-159 1188,-165 1182,-171 1176,-171"/>
<text text-anchor="middle" x="1139" y="-156" font-family="Arial" font-size="10.00">System MCU</text>
<text text-anchor="middle" x="1139" y="-145" font-family="Arial" font-size="10.00">Event Rules + Log</text>
</g>
<!-- acsense&#45;&gt;mcu -->
<g id="edge8" class="edge">
<title>acsense&#45;&gt;mcu</title>
<path fill="none" stroke="black" d="M690.71,-182.37C786.38,-176.09 982.05,-163.24 1079.77,-156.82"/>
<polygon fill="black" stroke="black" points="1080.02,-160.32 1089.77,-156.17 1079.56,-153.33 1080.02,-160.32"/>
</g>
<!-- meter&#45;&gt;mcu -->
<g id="edge10" class="edge">
<title>meter&#45;&gt;mcu</title>
<path fill="none" stroke="black" d="M1009.26,-201.87C1031.43,-193.46 1057.94,-183.39 1081.13,-174.59"/>
<polygon fill="black" stroke="black" points="1082.4,-177.85 1090.5,-171.03 1079.91,-171.31 1082.4,-177.85"/>
</g>
<!-- pd&#45;&gt;mcu -->
<g id="edge14" class="edge">
<title>pd&#45;&gt;mcu</title>
<path fill="none" stroke="black" d="M985,-302.99C1001.65,-289.91 1024.27,-271.52 1043,-254 1069.03,-229.65 1096.74,-199.67 1115.47,-178.73"/>
<polygon fill="black" stroke="black" points="1118.15,-180.98 1122.18,-171.18 1112.92,-176.32 1118.15,-180.98"/>
</g>
<!-- temp -->
<g id="node11" class="node">
<title>temp</title>
<path fill="none" stroke="black" d="M1010.5,-104C1010.5,-104 910.5,-104 910.5,-104 904.5,-104 898.5,-98 898.5,-92 898.5,-92 898.5,-80 898.5,-80 898.5,-74 904.5,-68 910.5,-68 910.5,-68 1010.5,-68 1010.5,-68 1016.5,-68 1022.5,-74 1022.5,-80 1022.5,-80 1022.5,-92 1022.5,-92 1022.5,-98 1016.5,-104 1010.5,-104"/>
<text text-anchor="middle" x="960.5" y="-83.5" font-family="Arial" font-size="10.00">Temperature / Protection</text>
</g>
<!-- temp&#45;&gt;mcu -->
<g id="edge15" class="edge">
<title>temp&#45;&gt;mcu</title>
<path fill="none" stroke="black" d="M1009.26,-104.13C1031.43,-112.54 1057.94,-122.61 1081.13,-131.41"/>
<polygon fill="black" stroke="black" points="1079.91,-134.69 1090.5,-134.97 1082.4,-128.15 1079.91,-134.69"/>
</g>
<!-- cap -->
<g id="node12" class="node">
<title>cap</title>
<path fill="none" stroke="black" d="M993,-36C993,-36 928,-36 928,-36 922,-36 916,-30 916,-24 916,-24 916,-12 916,-12 916,-6 922,0 928,0 928,0 993,0 993,0 999,0 1005,-6 1005,-12 1005,-12 1005,-24 1005,-24 1005,-30 999,-36 993,-36"/>
<text text-anchor="middle" x="960.5" y="-21" font-family="Arial" font-size="10.00">Supercapacitor</text>
<text text-anchor="middle" x="960.5" y="-10" font-family="Arial" font-size="10.00">Last&#45;gasp power</text>
</g>
<!-- cap&#45;&gt;mcu -->
<g id="edge16" class="edge">
<title>cap&#45;&gt;mcu</title>
<path fill="none" stroke="black" d="M1005.13,-32.27C1017.92,-37.47 1031.53,-44.06 1043,-52 1073.01,-72.78 1100.8,-104.38 1118.47,-126.69"/>
<polygon fill="black" stroke="black" points="1115.83,-128.99 1124.73,-134.74 1121.35,-124.7 1115.83,-128.99"/>
</g>
<!-- ui -->
<g id="node14" class="node">
<title>ui</title>
<path fill="none" stroke="black" d="M1341,-239C1341,-239 1247,-239 1247,-239 1241,-239 1235,-233 1235,-227 1235,-227 1235,-215 1235,-215 1235,-209 1241,-203 1247,-203 1247,-203 1341,-203 1341,-203 1347,-203 1353,-209 1353,-215 1353,-215 1353,-227 1353,-227 1353,-233 1347,-239 1341,-239"/>
<text text-anchor="middle" x="1294" y="-224" font-family="Arial" font-size="10.00">Local UI</text>
<text text-anchor="middle" x="1294" y="-213" font-family="Arial" font-size="10.00">Display / LED / Buzzer</text>
</g>
<!-- mcu&#45;&gt;ui -->
<g id="edge17" class="edge">
<title>mcu&#45;&gt;ui</title>
<path fill="none" stroke="black" d="M1180.6,-171.04C1199.78,-179.57 1222.86,-189.83 1243.1,-198.82"/>
<polygon fill="black" stroke="black" points="1241.92,-202.13 1252.48,-202.99 1244.76,-195.73 1241.92,-202.13"/>
</g>
<!-- nvm -->
<g id="node15" class="node">
<title>nvm</title>
<path fill="none" stroke="black" d="M1338.5,-171C1338.5,-171 1249.5,-171 1249.5,-171 1243.5,-171 1237.5,-165 1237.5,-159 1237.5,-159 1237.5,-147 1237.5,-147 1237.5,-141 1243.5,-135 1249.5,-135 1249.5,-135 1338.5,-135 1338.5,-135 1344.5,-135 1350.5,-141 1350.5,-147 1350.5,-147 1350.5,-159 1350.5,-159 1350.5,-165 1344.5,-171 1338.5,-171"/>
<text text-anchor="middle" x="1294" y="-150.5" font-family="Arial" font-size="10.00">Nonvolatile Event Log</text>
</g>
<!-- mcu&#45;&gt;nvm -->
<g id="edge18" class="edge">
<title>mcu&#45;&gt;nvm</title>
<path fill="none" stroke="black" d="M1188.41,-153C1200.71,-153 1214.13,-153 1227.13,-153"/>
<polygon fill="black" stroke="black" points="1227.44,-156.5 1237.44,-153 1227.44,-149.5 1227.44,-156.5"/>
</g>
<!-- ble -->
<g id="node16" class="node">
<title>ble</title>
<path fill="none" stroke="black" d="M1329,-103C1329,-103 1259,-103 1259,-103 1253,-103 1247,-97 1247,-91 1247,-91 1247,-79 1247,-79 1247,-73 1253,-67 1259,-67 1259,-67 1329,-67 1329,-67 1335,-67 1341,-73 1341,-79 1341,-79 1341,-91 1341,-91 1341,-97 1335,-103 1329,-103"/>
<text text-anchor="middle" x="1294" y="-82.5" font-family="Arial" font-size="10.00">Optional BLE App</text>
</g>
<!-- mcu&#45;&gt;ble -->
<g id="edge19" class="edge">
<title>mcu&#45;&gt;ble</title>
<path fill="none" stroke="black" d="M1180.6,-134.96C1199.78,-126.43 1222.86,-116.17 1243.1,-107.18"/>
<polygon fill="black" stroke="black" points="1244.76,-110.27 1252.48,-103.01 1241.92,-103.87 1244.76,-110.27"/>
</g>
</g>
</svg>
