<?xml version="1.0" encoding="utf-8" standalone="no"?>
<!DOCTYPE svg PUBLIC "-//W3C//DTD SVG 1.1//EN"
  "http://www.w3.org/Graphics/SVG/1.1/DTD/svg11.dtd">
<svg xmlns:xlink="http://www.w3.org/1999/xlink" width="1000.8pt" height="328.813953pt" viewBox="0 0 1000.8 328.813953" xmlns="http://www.w3.org/2000/svg" version="1.1">
 <metadata>
  <rdf:RDF xmlns:dc="http://purl.org/dc/elements/1.1/" xmlns:cc="http://creativecommons.org/ns#" xmlns:rdf="http://www.w3.org/1999/02/22-rdf-syntax-ns#">
   <cc:Work>
    <dc:type rdf:resource="http://purl.org/dc/dcmitype/StillImage"/>
    <dc:date>2026-07-14T09:41:38.172838</dc:date>
    <dc:format>image/svg+xml</dc:format>
    <dc:creator>
     <cc:Agent>
      <dc:title>Matplotlib v3.10.8, https://matplotlib.org/</dc:title>
     </cc:Agent>
    </dc:creator>
   </cc:Work>
  </rdf:RDF>
 </metadata>
 <defs>
  <style type="text/css">*{stroke-linejoin: round; stroke-linecap: butt}</style>
 </defs>
 <g id="figure_1">
  <g id="patch_1">
   <path d="M 0 328.813953 
L 1000.8 328.813953 
L 1000.8 0 
L 0 0 
z
" style="fill: #ffffff"/>
  </g>
  <g id="axes_1">
   <g id="patch_2">
    <path d="M 38.986047 319.744186 
L 297.013953 319.744186 
Q 319.451163 319.744186 319.451163 297.306977 
L 319.451163 106.590698 
Q 319.451163 84.153488 297.013953 84.153488 
L 38.986047 84.153488 
Q 16.548837 84.153488 16.548837 106.590698 
L 16.548837 297.306977 
Q 16.548837 319.744186 38.986047 319.744186 
L 38.986047 319.744186 
z
" clip-path="url(#p9dc2b8d689)" style="fill: none; stroke: #000000; stroke-width: 2; stroke-linejoin: miter"/>
   </g>
   <g id="patch_3">
    <path d="M 81.990698 132.767442 
L 250.269767 132.767442 
Q 252.139535 132.767442 252.139535 130.897674 
L 252.139535 114.069767 
Q 252.139535 112.2 250.269767 112.2 
L 81.990698 112.2 
Q 80.12093 112.2 80.12093 114.069767 
L 80.12093 130.897674 
Q 80.12093 132.767442 81.990698 132.767442 
L 81.990698 132.767442 
z
" clip-path="url(#p9dc2b8d689)" style="fill: none; stroke: #000000; stroke-linejoin: miter"/>
   </g>
   <g id="patch_4">
    <path d="M 89.469767 267.390698 
L 126.865116 267.390698 
Q 128.734884 267.390698 128.734884 265.52093 
L 128.734884 248.693023 
Q 128.734884 246.823256 126.865116 246.823256 
L 89.469767 246.823256 
Q 87.6 246.823256 87.6 248.693023 
L 87.6 265.52093 
Q 87.6 267.390698 89.469767 267.390698 
L 89.469767 267.390698 
z
" clip-path="url(#p9dc2b8d689)" style="fill: none; stroke: #000000; stroke-linejoin: miter"/>
   </g>
   <g id="patch_5">
    <path d="M 158.651163 267.390698 
L 196.046512 267.390698 
Q 197.916279 267.390698 197.916279 265.52093 
L 197.916279 248.693023 
Q 197.916279 246.823256 196.046512 246.823256 
L 158.651163 246.823256 
Q 156.781395 246.823256 156.781395 248.693023 
L 156.781395 265.52093 
Q 156.781395 267.390698 158.651163 267.390698 
L 158.651163 267.390698 
z
" clip-path="url(#p9dc2b8d689)" style="fill: none; stroke: #000000; stroke-linejoin: miter"/>
   </g>
   <g id="patch_6">
    <path d="M 227.832558 267.390698 
L 265.227907 267.390698 
Q 267.097674 267.390698 267.097674 265.52093 
L 267.097674 248.693023 
Q 267.097674 246.823256 265.227907 246.823256 
L 227.832558 246.823256 
Q 225.962791 246.823256 225.962791 248.693023 
L 225.962791 265.52093 
Q 225.962791 267.390698 227.832558 267.390698 
L 227.832558 267.390698 
z
" clip-path="url(#p9dc2b8d689)" style="fill: none; stroke: #000000; stroke-linejoin: miter"/>
   </g>
   <g id="text_1">
    <!-- C1 -->
    <g transform="translate(102.162051 278.609302) scale(0.09 -0.09)">
     <defs>
      <path id="DejaVuSans-43" d="M 4122 4306 
L 4122 3641 
Q 3803 3938 3442 4084 
Q 3081 4231 2675 4231 
Q 1875 4231 1450 3742 
Q 1025 3253 1025 2328 
Q 1025 1406 1450 917 
Q 1875 428 2675 428 
Q 3081 428 3442 575 
Q 3803 722 4122 1019 
L 4122 359 
Q 3791 134 3420 21 
Q 3050 -91 2638 -91 
Q 1578 -91 968 557 
Q 359 1206 359 2328 
Q 359 3453 968 4101 
Q 1578 4750 2638 4750 
Q 3056 4750 3426 4639 
Q 3797 4528 4122 4306 
z
" transform="scale(0.015625)"/>
      <path id="DejaVuSans-31" d="M 794 531 
L 1825 531 
L 1825 4091 
L 703 3866 
L 703 4441 
L 1819 4666 
L 2450 4666 
L 2450 531 
L 3481 531 
L 3481 0 
L 794 0 
L 794 531 
z
" transform="scale(0.015625)"/>
     </defs>
     <use xlink:href="#DejaVuSans-43"/>
     <use xlink:href="#DejaVuSans-31" transform="translate(69.824219 0)"/>
    </g>
   </g>
   <g id="text_2">
    <!-- C2 -->
    <g transform="translate(171.343447 278.609302) scale(0.09 -0.09)">
     <defs>
      <path id="DejaVuSans-32" d="M 1228 531 
L 3431 531 
L 3431 0 
L 469 0 
L 469 531 
Q 828 903 1448 1529 
Q 2069 2156 2228 2338 
Q 2531 2678 2651 2914 
Q 2772 3150 2772 3378 
Q 2772 3750 2511 3984 
Q 2250 4219 1831 4219 
Q 1534 4219 1204 4116 
Q 875 4013 500 3803 
L 500 4441 
Q 881 4594 1212 4672 
Q 1544 4750 1819 4750 
Q 2544 4750 2975 4387 
Q 3406 4025 3406 3419 
Q 3406 3131 3298 2873 
Q 3191 2616 2906 2266 
Q 2828 2175 2409 1742 
Q 1991 1309 1228 531 
z
" transform="scale(0.015625)"/>
     </defs>
     <use xlink:href="#DejaVuSans-43"/>
     <use xlink:href="#DejaVuSans-32" transform="translate(69.824219 0)"/>
    </g>
   </g>
   <g id="text_3">
    <!-- C3 -->
    <g transform="translate(240.524842 278.609302) scale(0.09 -0.09)">
     <defs>
      <path id="DejaVuSans-33" d="M 2597 2516 
Q 3050 2419 3304 2112 
Q 3559 1806 3559 1356 
Q 3559 666 3084 287 
Q 2609 -91 1734 -91 
Q 1441 -91 1130 -33 
Q 819 25 488 141 
L 488 750 
Q 750 597 1062 519 
Q 1375 441 1716 441 
Q 2309 441 2620 675 
Q 2931 909 2931 1356 
Q 2931 1769 2642 2001 
Q 2353 2234 1838 2234 
L 1294 2234 
L 1294 2753 
L 1863 2753 
Q 2328 2753 2575 2939 
Q 2822 3125 2822 3475 
Q 2822 3834 2567 4026 
Q 2313 4219 1838 4219 
Q 1578 4219 1281 4162 
Q 984 4106 628 3988 
L 628 4550 
Q 988 4650 1302 4700 
Q 1616 4750 1894 4750 
Q 2613 4750 3031 4423 
Q 3450 4097 3450 3541 
Q 3450 3153 3228 2886 
Q 3006 2619 2597 2516 
z
" transform="scale(0.015625)"/>
     </defs>
     <use xlink:href="#DejaVuSans-43"/>
     <use xlink:href="#DejaVuSans-33" transform="translate(69.824219 0)"/>
    </g>
   </g>
   <g id="text_4">
    <!-- Front -->
    <g transform="translate(152.826562 78.544186) scale(0.12 -0.12)">
     <defs>
      <path id="DejaVuSans-46" d="M 628 4666 
L 3309 4666 
L 3309 4134 
L 1259 4134 
L 1259 2759 
L 3109 2759 
L 3109 2228 
L 1259 2228 
L 1259 0 
L 628 0 
L 628 4666 
z
" transform="scale(0.015625)"/>
      <path id="DejaVuSans-72" d="M 2631 2963 
Q 2534 3019 2420 3045 
Q 2306 3072 2169 3072 
Q 1681 3072 1420 2755 
Q 1159 2438 1159 1844 
L 1159 0 
L 581 0 
L 581 3500 
L 1159 3500 
L 1159 2956 
Q 1341 3275 1631 3429 
Q 1922 3584 2338 3584 
Q 2397 3584 2469 3576 
Q 2541 3569 2628 3553 
L 2631 2963 
z
" transform="scale(0.015625)"/>
      <path id="DejaVuSans-6f" d="M 1959 3097 
Q 1497 3097 1228 2736 
Q 959 2375 959 1747 
Q 959 1119 1226 758 
Q 1494 397 1959 397 
Q 2419 397 2687 759 
Q 2956 1122 2956 1747 
Q 2956 2369 2687 2733 
Q 2419 3097 1959 3097 
z
M 1959 3584 
Q 2709 3584 3137 3096 
Q 3566 2609 3566 1747 
Q 3566 888 3137 398 
Q 2709 -91 1959 -91 
Q 1206 -91 779 398 
Q 353 888 353 1747 
Q 353 2609 779 3096 
Q 1206 3584 1959 3584 
z
" transform="scale(0.015625)"/>
      <path id="DejaVuSans-6e" d="M 3513 2113 
L 3513 0 
L 2938 0 
L 2938 2094 
Q 2938 2591 2744 2837 
Q 2550 3084 2163 3084 
Q 1697 3084 1428 2787 
Q 1159 2491 1159 1978 
L 1159 0 
L 581 0 
L 581 3500 
L 1159 3500 
L 1159 2956 
Q 1366 3272 1645 3428 
Q 1925 3584 2291 3584 
Q 2894 3584 3203 3211 
Q 3513 2838 3513 2113 
z
" transform="scale(0.015625)"/>
      <path id="DejaVuSans-74" d="M 1172 4494 
L 1172 3500 
L 2356 3500 
L 2356 3053 
L 1172 3053 
L 1172 1153 
Q 1172 725 1289 603 
Q 1406 481 1766 481 
L 2356 481 
L 2356 0 
L 1766 0 
Q 1100 0 847 248 
Q 594 497 594 1153 
L 594 3053 
L 172 3053 
L 172 3500 
L 594 3500 
L 594 4494 
L 1172 4494 
z
" transform="scale(0.015625)"/>
     </defs>
     <use xlink:href="#DejaVuSans-46"/>
     <use xlink:href="#DejaVuSans-72" transform="translate(50.269531 0)"/>
     <use xlink:href="#DejaVuSans-6f" transform="translate(89.132812 0)"/>
     <use xlink:href="#DejaVuSans-6e" transform="translate(150.314453 0)"/>
     <use xlink:href="#DejaVuSans-74" transform="translate(213.693359 0)"/>
    </g>
   </g>
  </g>
  <g id="axes_2">
   <g id="patch_7">
    <path d="M 371.386047 259.911628 
L 629.413953 259.911628 
Q 651.851163 259.911628 651.851163 237.474419 
L 651.851163 158.944186 
Q 651.851163 136.506977 629.413953 136.506977 
L 371.386047 136.506977 
Q 348.948837 136.506977 348.948837 158.944186 
L 348.948837 237.474419 
Q 348.948837 259.911628 371.386047 259.911628 
L 371.386047 259.911628 
z
" clip-path="url(#p5a9bd29a0d)" style="fill: none; stroke: #000000; stroke-width: 2; stroke-linejoin: miter"/>
   </g>
   <g id="patch_8">
    <path d="M 414.390698 190.730233 
L 582.669767 190.730233 
Q 584.539535 190.730233 584.539535 188.860465 
L 584.539535 172.032558 
Q 584.539535 170.162791 582.669767 170.162791 
L 414.390698 170.162791 
Q 412.52093 170.162791 412.52093 172.032558 
L 412.52093 188.860465 
Q 412.52093 190.730233 414.390698 190.730233 
L 414.390698 190.730233 
z
" clip-path="url(#p5a9bd29a0d)" style="fill: none; stroke: #000000; stroke-linejoin: miter"/>
   </g>
   <g id="text_5">
    <!-- Top -->
    <g transform="translate(490.275 127.15814) scale(0.12 -0.12)">
     <defs>
      <path id="DejaVuSans-54" d="M -19 4666 
L 3928 4666 
L 3928 4134 
L 2272 4134 
L 2272 0 
L 1638 0 
L 1638 4134 
L -19 4134 
L -19 4666 
z
" transform="scale(0.015625)"/>
      <path id="DejaVuSans-70" d="M 1159 525 
L 1159 -1331 
L 581 -1331 
L 581 3500 
L 1159 3500 
L 1159 2969 
Q 1341 3281 1617 3432 
Q 1894 3584 2278 3584 
Q 2916 3584 3314 3078 
Q 3713 2572 3713 1747 
Q 3713 922 3314 415 
Q 2916 -91 2278 -91 
Q 1894 -91 1617 61 
Q 1341 213 1159 525 
z
M 3116 1747 
Q 3116 2381 2855 2742 
Q 2594 3103 2138 3103 
Q 1681 3103 1420 2742 
Q 1159 2381 1159 1747 
Q 1159 1113 1420 752 
Q 1681 391 2138 391 
Q 2594 391 2855 752 
Q 3116 1113 3116 1747 
z
" transform="scale(0.015625)"/>
     </defs>
     <use xlink:href="#DejaVuSans-54"/>
     <use xlink:href="#DejaVuSans-6f" transform="translate(44.083984 0)"/>
     <use xlink:href="#DejaVuSans-70" transform="translate(105.265625 0)"/>
    </g>
   </g>
   <g id="text_6">
    <!-- TOTAL 82W -->
    <g transform="translate(474.517969 180.633488) scale(0.09 -0.09)">
     <defs>
      <path id="DejaVuSans-4f" d="M 2522 4238 
Q 1834 4238 1429 3725 
Q 1025 3213 1025 2328 
Q 1025 1447 1429 934 
Q 1834 422 2522 422 
Q 3209 422 3611 934 
Q 4013 1447 4013 2328 
Q 4013 3213 3611 3725 
Q 3209 4238 2522 4238 
z
M 2522 4750 
Q 3503 4750 4090 4092 
Q 4678 3434 4678 2328 
Q 4678 1225 4090 567 
Q 3503 -91 2522 -91 
Q 1538 -91 948 565 
Q 359 1222 359 2328 
Q 359 3434 948 4092 
Q 1538 4750 2522 4750 
z
" transform="scale(0.015625)"/>
      <path id="DejaVuSans-41" d="M 2188 4044 
L 1331 1722 
L 3047 1722 
L 2188 4044 
z
M 1831 4666 
L 2547 4666 
L 4325 0 
L 3669 0 
L 3244 1197 
L 1141 1197 
L 716 0 
L 50 0 
L 1831 4666 
z
" transform="scale(0.015625)"/>
      <path id="DejaVuSans-4c" d="M 628 4666 
L 1259 4666 
L 1259 531 
L 3531 531 
L 3531 0 
L 628 0 
L 628 4666 
z
" transform="scale(0.015625)"/>
      <path id="DejaVuSans-20" transform="scale(0.015625)"/>
      <path id="DejaVuSans-38" d="M 2034 2216 
Q 1584 2216 1326 1975 
Q 1069 1734 1069 1313 
Q 1069 891 1326 650 
Q 1584 409 2034 409 
Q 2484 409 2743 651 
Q 3003 894 3003 1313 
Q 3003 1734 2745 1975 
Q 2488 2216 2034 2216 
z
M 1403 2484 
Q 997 2584 770 2862 
Q 544 3141 544 3541 
Q 544 4100 942 4425 
Q 1341 4750 2034 4750 
Q 2731 4750 3128 4425 
Q 3525 4100 3525 3541 
Q 3525 3141 3298 2862 
Q 3072 2584 2669 2484 
Q 3125 2378 3379 2068 
Q 3634 1759 3634 1313 
Q 3634 634 3220 271 
Q 2806 -91 2034 -91 
Q 1263 -91 848 271 
Q 434 634 434 1313 
Q 434 1759 690 2068 
Q 947 2378 1403 2484 
z
M 1172 3481 
Q 1172 3119 1398 2916 
Q 1625 2713 2034 2713 
Q 2441 2713 2670 2916 
Q 2900 3119 2900 3481 
Q 2900 3844 2670 4047 
Q 2441 4250 2034 4250 
Q 1625 4250 1398 4047 
Q 1172 3844 1172 3481 
z
" transform="scale(0.015625)"/>
      <path id="DejaVuSans-57" d="M 213 4666 
L 850 4666 
L 1831 722 
L 2809 4666 
L 3519 4666 
L 4500 722 
L 5478 4666 
L 6119 4666 
L 4947 0 
L 4153 0 
L 3169 4050 
L 2175 0 
L 1381 0 
L 213 4666 
z
" transform="scale(0.015625)"/>
     </defs>
     <use xlink:href="#DejaVuSans-54"/>
     <use xlink:href="#DejaVuSans-4f" transform="translate(61.083984 0)"/>
     <use xlink:href="#DejaVuSans-54" transform="translate(139.794922 0)"/>
     <use xlink:href="#DejaVuSans-41" transform="translate(193.128906 0)"/>
     <use xlink:href="#DejaVuSans-4c" transform="translate(261.537109 0)"/>
     <use xlink:href="#DejaVuSans-20" transform="translate(317.25 0)"/>
     <use xlink:href="#DejaVuSans-38" transform="translate(349.037109 0)"/>
     <use xlink:href="#DejaVuSans-32" transform="translate(412.660156 0)"/>
     <use xlink:href="#DejaVuSans-57" transform="translate(476.283203 0)"/>
    </g>
   </g>
  </g>
  <g id="axes_3">
   <g id="patch_9">
    <path d="M 703.786047 319.744186 
L 961.813953 319.744186 
Q 984.251163 319.744186 984.251163 297.306977 
L 984.251163 106.590698 
Q 984.251163 84.153488 961.813953 84.153488 
L 703.786047 84.153488 
Q 681.348837 84.153488 681.348837 106.590698 
L 681.348837 297.306977 
Q 681.348837 319.744186 703.786047 319.744186 
L 703.786047 319.744186 
z
" clip-path="url(#p29e8e2b550)" style="fill: none; stroke: #000000; stroke-width: 2; stroke-linejoin: miter"/>
   </g>
   <g id="patch_10">
    <path d="M 722.483721 297.306977 
L 943.116279 297.306977 
Q 961.813953 297.306977 961.813953 278.609302 
L 961.813953 125.288372 
Q 961.813953 106.590698 943.116279 106.590698 
L 722.483721 106.590698 
Q 703.786047 106.590698 703.786047 125.288372 
L 703.786047 278.609302 
Q 703.786047 297.306977 722.483721 297.306977 
L 722.483721 297.306977 
z
" clip-path="url(#p29e8e2b550)" style="fill: none; stroke: #000000; stroke-linejoin: miter"/>
   </g>
   <g id="patch_11">
    <path d="M 801.013953 226.255814 
L 864.586047 226.255814 
Q 866.455814 226.255814 866.455814 224.386047 
L 866.455814 194.469767 
Q 866.455814 192.6 864.586047 192.6 
L 801.013953 192.6 
Q 799.144186 192.6 799.144186 194.469767 
L 799.144186 224.386047 
Q 799.144186 226.255814 801.013953 226.255814 
L 801.013953 226.255814 
z
" clip-path="url(#p29e8e2b550)" style="fill: none; stroke: #000000; stroke-linejoin: miter"/>
   </g>
   <g id="text_7">
    <!-- LOCK AC -->
    <g transform="translate(813.248203 211.911344) scale(0.09 -0.09)">
     <defs>
      <path id="DejaVuSans-4b" d="M 628 4666 
L 1259 4666 
L 1259 2694 
L 3353 4666 
L 4166 4666 
L 1850 2491 
L 4331 0 
L 3500 0 
L 1259 2247 
L 1259 0 
L 628 0 
L 628 4666 
z
" transform="scale(0.015625)"/>
     </defs>
     <use xlink:href="#DejaVuSans-4c"/>
     <use xlink:href="#DejaVuSans-4f" transform="translate(52.087891 0)"/>
     <use xlink:href="#DejaVuSans-43" transform="translate(130.798828 0)"/>
     <use xlink:href="#DejaVuSans-4b" transform="translate(200.623047 0)"/>
     <use xlink:href="#DejaVuSans-20" transform="translate(266.199219 0)"/>
     <use xlink:href="#DejaVuSans-41" transform="translate(297.986328 0)"/>
     <use xlink:href="#DejaVuSans-43" transform="translate(364.644531 0)"/>
    </g>
   </g>
   <g id="text_8">
    <!-- Rear / Cable Wrap -->
    <g transform="translate(778.674375 78.544186) scale(0.12 -0.12)">
     <defs>
      <path id="DejaVuSans-52" d="M 2841 2188 
Q 3044 2119 3236 1894 
Q 3428 1669 3622 1275 
L 4263 0 
L 3584 0 
L 2988 1197 
Q 2756 1666 2539 1819 
Q 2322 1972 1947 1972 
L 1259 1972 
L 1259 0 
L 628 0 
L 628 4666 
L 2053 4666 
Q 2853 4666 3247 4331 
Q 3641 3997 3641 3322 
Q 3641 2881 3436 2590 
Q 3231 2300 2841 2188 
z
M 1259 4147 
L 1259 2491 
L 2053 2491 
Q 2509 2491 2742 2702 
Q 2975 2913 2975 3322 
Q 2975 3731 2742 3939 
Q 2509 4147 2053 4147 
L 1259 4147 
z
" transform="scale(0.015625)"/>
      <path id="DejaVuSans-65" d="M 3597 1894 
L 3597 1613 
L 953 1613 
Q 991 1019 1311 708 
Q 1631 397 2203 397 
Q 2534 397 2845 478 
Q 3156 559 3463 722 
L 3463 178 
Q 3153 47 2828 -22 
Q 2503 -91 2169 -91 
Q 1331 -91 842 396 
Q 353 884 353 1716 
Q 353 2575 817 3079 
Q 1281 3584 2069 3584 
Q 2775 3584 3186 3129 
Q 3597 2675 3597 1894 
z
M 3022 2063 
Q 3016 2534 2758 2815 
Q 2500 3097 2075 3097 
Q 1594 3097 1305 2825 
Q 1016 2553 972 2059 
L 3022 2063 
z
" transform="scale(0.015625)"/>
      <path id="DejaVuSans-61" d="M 2194 1759 
Q 1497 1759 1228 1600 
Q 959 1441 959 1056 
Q 959 750 1161 570 
Q 1363 391 1709 391 
Q 2188 391 2477 730 
Q 2766 1069 2766 1631 
L 2766 1759 
L 2194 1759 
z
M 3341 1997 
L 3341 0 
L 2766 0 
L 2766 531 
Q 2569 213 2275 61 
Q 1981 -91 1556 -91 
Q 1019 -91 701 211 
Q 384 513 384 1019 
Q 384 1609 779 1909 
Q 1175 2209 1959 2209 
L 2766 2209 
L 2766 2266 
Q 2766 2663 2505 2880 
Q 2244 3097 1772 3097 
Q 1472 3097 1187 3025 
Q 903 2953 641 2809 
L 641 3341 
Q 956 3463 1253 3523 
Q 1550 3584 1831 3584 
Q 2591 3584 2966 3190 
Q 3341 2797 3341 1997 
z
" transform="scale(0.015625)"/>
      <path id="DejaVuSans-2f" d="M 1625 4666 
L 2156 4666 
L 531 -594 
L 0 -594 
L 1625 4666 
z
" transform="scale(0.015625)"/>
      <path id="DejaVuSans-62" d="M 3116 1747 
Q 3116 2381 2855 2742 
Q 2594 3103 2138 3103 
Q 1681 3103 1420 2742 
Q 1159 2381 1159 1747 
Q 1159 1113 1420 752 
Q 1681 391 2138 391 
Q 2594 391 2855 752 
Q 3116 1113 3116 1747 
z
M 1159 2969 
Q 1341 3281 1617 3432 
Q 1894 3584 2278 3584 
Q 2916 3584 3314 3078 
Q 3713 2572 3713 1747 
Q 3713 922 3314 415 
Q 2916 -91 2278 -91 
Q 1894 -91 1617 61 
Q 1341 213 1159 525 
L 1159 0 
L 581 0 
L 581 4863 
L 1159 4863 
L 1159 2969 
z
" transform="scale(0.015625)"/>
      <path id="DejaVuSans-6c" d="M 603 4863 
L 1178 4863 
L 1178 0 
L 603 0 
L 603 4863 
z
" transform="scale(0.015625)"/>
     </defs>
     <use xlink:href="#DejaVuSans-52"/>
     <use xlink:href="#DejaVuSans-65" transform="translate(64.982422 0)"/>
     <use xlink:href="#DejaVuSans-61" transform="translate(126.505859 0)"/>
     <use xlink:href="#DejaVuSans-72" transform="translate(187.785156 0)"/>
     <use xlink:href="#DejaVuSans-20" transform="translate(228.898438 0)"/>
     <use xlink:href="#DejaVuSans-2f" transform="translate(260.685547 0)"/>
     <use xlink:href="#DejaVuSans-20" transform="translate(294.376953 0)"/>
     <use xlink:href="#DejaVuSans-43" transform="translate(326.164062 0)"/>
     <use xlink:href="#DejaVuSans-61" transform="translate(395.988281 0)"/>
     <use xlink:href="#DejaVuSans-62" transform="translate(457.267578 0)"/>
     <use xlink:href="#DejaVuSans-6c" transform="translate(520.744141 0)"/>
     <use xlink:href="#DejaVuSans-65" transform="translate(548.527344 0)"/>
     <use xlink:href="#DejaVuSans-20" transform="translate(610.050781 0)"/>
     <use xlink:href="#DejaVuSans-57" transform="translate(641.837891 0)"/>
     <use xlink:href="#DejaVuSans-72" transform="translate(736.214844 0)"/>
     <use xlink:href="#DejaVuSans-61" transform="translate(777.328125 0)"/>
     <use xlink:href="#DejaVuSans-70" transform="translate(838.607422 0)"/>
    </g>
   </g>
  </g>
  <g id="text_9">
   <!-- Atlas Relay — Relay Bar Orthographic Concept -->
   <g transform="translate(313.92625 19.3575) scale(0.16 -0.16)">
    <defs>
     <path id="DejaVuSans-73" d="M 2834 3397 
L 2834 2853 
Q 2591 2978 2328 3040 
Q 2066 3103 1784 3103 
Q 1356 3103 1142 2972 
Q 928 2841 928 2578 
Q 928 2378 1081 2264 
Q 1234 2150 1697 2047 
L 1894 2003 
Q 2506 1872 2764 1633 
Q 3022 1394 3022 966 
Q 3022 478 2636 193 
Q 2250 -91 1575 -91 
Q 1294 -91 989 -36 
Q 684 19 347 128 
L 347 722 
Q 666 556 975 473 
Q 1284 391 1588 391 
Q 1994 391 2212 530 
Q 2431 669 2431 922 
Q 2431 1156 2273 1281 
Q 2116 1406 1581 1522 
L 1381 1569 
Q 847 1681 609 1914 
Q 372 2147 372 2553 
Q 372 3047 722 3315 
Q 1072 3584 1716 3584 
Q 2034 3584 2315 3537 
Q 2597 3491 2834 3397 
z
" transform="scale(0.015625)"/>
     <path id="DejaVuSans-79" d="M 2059 -325 
Q 1816 -950 1584 -1140 
Q 1353 -1331 966 -1331 
L 506 -1331 
L 506 -850 
L 844 -850 
Q 1081 -850 1212 -737 
Q 1344 -625 1503 -206 
L 1606 56 
L 191 3500 
L 800 3500 
L 1894 763 
L 2988 3500 
L 3597 3500 
L 2059 -325 
z
" transform="scale(0.015625)"/>
     <path id="DejaVuSans-2014" d="M 313 1978 
L 6088 1978 
L 6088 1528 
L 313 1528 
L 313 1978 
z
" transform="scale(0.015625)"/>
     <path id="DejaVuSans-42" d="M 1259 2228 
L 1259 519 
L 2272 519 
Q 2781 519 3026 730 
Q 3272 941 3272 1375 
Q 3272 1813 3026 2020 
Q 2781 2228 2272 2228 
L 1259 2228 
z
M 1259 4147 
L 1259 2741 
L 2194 2741 
Q 2656 2741 2882 2914 
Q 3109 3088 3109 3444 
Q 3109 3797 2882 3972 
Q 2656 4147 2194 4147 
L 1259 4147 
z
M 628 4666 
L 2241 4666 
Q 2963 4666 3353 4366 
Q 3744 4066 3744 3513 
Q 3744 3084 3544 2831 
Q 3344 2578 2956 2516 
Q 3422 2416 3680 2098 
Q 3938 1781 3938 1306 
Q 3938 681 3513 340 
Q 3088 0 2303 0 
L 628 0 
L 628 4666 
z
" transform="scale(0.015625)"/>
     <path id="DejaVuSans-68" d="M 3513 2113 
L 3513 0 
L 2938 0 
L 2938 2094 
Q 2938 2591 2744 2837 
Q 2550 3084 2163 3084 
Q 1697 3084 1428 2787 
Q 1159 2491 1159 1978 
L 1159 0 
L 581 0 
L 581 4863 
L 1159 4863 
L 1159 2956 
Q 1366 3272 1645 3428 
Q 1925 3584 2291 3584 
Q 2894 3584 3203 3211 
Q 3513 2838 3513 2113 
z
" transform="scale(0.015625)"/>
     <path id="DejaVuSans-67" d="M 2906 1791 
Q 2906 2416 2648 2759 
Q 2391 3103 1925 3103 
Q 1463 3103 1205 2759 
Q 947 2416 947 1791 
Q 947 1169 1205 825 
Q 1463 481 1925 481 
Q 2391 481 2648 825 
Q 2906 1169 2906 1791 
z
M 3481 434 
Q 3481 -459 3084 -895 
Q 2688 -1331 1869 -1331 
Q 1566 -1331 1297 -1286 
Q 1028 -1241 775 -1147 
L 775 -588 
Q 1028 -725 1275 -790 
Q 1522 -856 1778 -856 
Q 2344 -856 2625 -561 
Q 2906 -266 2906 331 
L 2906 616 
Q 2728 306 2450 153 
Q 2172 0 1784 0 
Q 1141 0 747 490 
Q 353 981 353 1791 
Q 353 2603 747 3093 
Q 1141 3584 1784 3584 
Q 2172 3584 2450 3431 
Q 2728 3278 2906 2969 
L 2906 3500 
L 3481 3500 
L 3481 434 
z
" transform="scale(0.015625)"/>
     <path id="DejaVuSans-69" d="M 603 3500 
L 1178 3500 
L 1178 0 
L 603 0 
L 603 3500 
z
M 603 4863 
L 1178 4863 
L 1178 4134 
L 603 4134 
L 603 4863 
z
" transform="scale(0.015625)"/>
     <path id="DejaVuSans-63" d="M 3122 3366 
L 3122 2828 
Q 2878 2963 2633 3030 
Q 2388 3097 2138 3097 
Q 1578 3097 1268 2742 
Q 959 2388 959 1747 
Q 959 1106 1268 751 
Q 1578 397 2138 397 
Q 2388 397 2633 464 
Q 2878 531 3122 666 
L 3122 134 
Q 2881 22 2623 -34 
Q 2366 -91 2075 -91 
Q 1284 -91 818 406 
Q 353 903 353 1747 
Q 353 2603 823 3093 
Q 1294 3584 2113 3584 
Q 2378 3584 2631 3529 
Q 2884 3475 3122 3366 
z
" transform="scale(0.015625)"/>
    </defs>
    <use xlink:href="#DejaVuSans-41"/>
    <use xlink:href="#DejaVuSans-74" transform="translate(66.658203 0)"/>
    <use xlink:href="#DejaVuSans-6c" transform="translate(105.867188 0)"/>
    <use xlink:href="#DejaVuSans-61" transform="translate(133.650391 0)"/>
    <use xlink:href="#DejaVuSans-73" transform="translate(194.929688 0)"/>
    <use xlink:href="#DejaVuSans-20" transform="translate(247.029297 0)"/>
    <use xlink:href="#DejaVuSans-52" transform="translate(278.816406 0)"/>
    <use xlink:href="#DejaVuSans-65" transform="translate(343.798828 0)"/>
    <use xlink:href="#DejaVuSans-6c" transform="translate(405.322266 0)"/>
    <use xlink:href="#DejaVuSans-61" transform="translate(433.105469 0)"/>
    <use xlink:href="#DejaVuSans-79" transform="translate(494.384766 0)"/>
    <use xlink:href="#DejaVuSans-20" transform="translate(553.564453 0)"/>
    <use xlink:href="#DejaVuSans-2014" transform="translate(585.351562 0)"/>
    <use xlink:href="#DejaVuSans-20" transform="translate(685.351562 0)"/>
    <use xlink:href="#DejaVuSans-52" transform="translate(717.138672 0)"/>
    <use xlink:href="#DejaVuSans-65" transform="translate(782.121094 0)"/>
    <use xlink:href="#DejaVuSans-6c" transform="translate(843.644531 0)"/>
    <use xlink:href="#DejaVuSans-61" transform="translate(871.427734 0)"/>
    <use xlink:href="#DejaVuSans-79" transform="translate(932.707031 0)"/>
    <use xlink:href="#DejaVuSans-20" transform="translate(991.886719 0)"/>
    <use xlink:href="#DejaVuSans-42" transform="translate(1023.673828 0)"/>
    <use xlink:href="#DejaVuSans-61" transform="translate(1092.277344 0)"/>
    <use xlink:href="#DejaVuSans-72" transform="translate(1153.556641 0)"/>
    <use xlink:href="#DejaVuSans-20" transform="translate(1194.669922 0)"/>
    <use xlink:href="#DejaVuSans-4f" transform="translate(1226.457031 0)"/>
    <use xlink:href="#DejaVuSans-72" transform="translate(1305.167969 0)"/>
    <use xlink:href="#DejaVuSans-74" transform="translate(1346.28125 0)"/>
    <use xlink:href="#DejaVuSans-68" transform="translate(1385.490234 0)"/>
    <use xlink:href="#DejaVuSans-6f" transform="translate(1448.869141 0)"/>
    <use xlink:href="#DejaVuSans-67" transform="translate(1510.050781 0)"/>
    <use xlink:href="#DejaVuSans-72" transform="translate(1573.527344 0)"/>
    <use xlink:href="#DejaVuSans-61" transform="translate(1614.640625 0)"/>
    <use xlink:href="#DejaVuSans-70" transform="translate(1675.919922 0)"/>
    <use xlink:href="#DejaVuSans-68" transform="translate(1739.396484 0)"/>
    <use xlink:href="#DejaVuSans-69" transform="translate(1802.775391 0)"/>
    <use xlink:href="#DejaVuSans-63" transform="translate(1830.558594 0)"/>
    <use xlink:href="#DejaVuSans-20" transform="translate(1885.539062 0)"/>
    <use xlink:href="#DejaVuSans-43" transform="translate(1917.326172 0)"/>
    <use xlink:href="#DejaVuSans-6f" transform="translate(1987.150391 0)"/>
    <use xlink:href="#DejaVuSans-6e" transform="translate(2048.332031 0)"/>
    <use xlink:href="#DejaVuSans-63" transform="translate(2111.710938 0)"/>
    <use xlink:href="#DejaVuSans-65" transform="translate(2166.691406 0)"/>
    <use xlink:href="#DejaVuSans-70" transform="translate(2228.214844 0)"/>
    <use xlink:href="#DejaVuSans-74" transform="translate(2291.691406 0)"/>
   </g>
  </g>
 </g>
 <defs>
  <clipPath id="p9dc2b8d689">
   <rect x="7.2" y="63.586047" width="321.6" height="258.027907"/>
  </clipPath>
  <clipPath id="p5a9bd29a0d">
   <rect x="339.6" y="112.2" width="321.6" height="160.8"/>
  </clipPath>
  <clipPath id="p29e8e2b550">
   <rect x="672" y="63.586047" width="321.6" height="258.027907"/>
  </clipPath>
 </defs>
</svg>
